<svg width="24" height="24" viewBox="0 0 24 24" fill="none" xmlns="http://www.w3.org/2000/svg">
<path d="M19.6329 7.10999L13.1589 3.08999C12.8047 2.86884 12.3955 2.75159 11.9779 2.75159C11.5604 2.75159 11.1512 2.86884 10.7969 3.08999L4.32394 7.13299C3.9559 7.36509 3.66379 7.69979 3.48361 8.09585C3.30344 8.49192 3.24307 8.93204 3.30994 9.36199L4.97994 19.389C5.06822 19.9139 5.34133 20.3899 5.74994 20.7311C6.15856 21.0722 6.67571 21.2559 7.20794 21.249H16.7899C17.3224 21.2561 17.8397 21.0725 18.2486 20.7314C18.6574 20.3902 18.9306 19.9141 19.0189 19.389L20.6889 9.36199C20.7561 8.92413 20.6914 8.47619 20.5029 8.07529C20.3145 7.67438 20.0109 7.33868 19.6309 7.11099" stroke="currentColor" stroke-width="1.5" stroke-linecap="round" stroke-linejoin="round"/>
</svg>
